<?xml version="1.0" standalone="no"?>
<!DOCTYPE svg PUBLIC "-//W3C//DTD SVG 20010904//EN"
 "http://www.w3.org/TR/2001/REC-SVG-20010904/DTD/svg10.dtd">
<svg version="1.0" xmlns="http://www.w3.org/2000/svg"
 width="258.000000pt" height="258.000000pt" viewBox="0 0 258.000000 258.000000"
 preserveAspectRatio="xMidYMid meet">
<metadata>
Created by potrace 1.11, written by Peter Selinger 2001-2013
</metadata>
<g transform="translate(0.000000,258.000000) scale(0.100000,-0.100000)"
fill="#000000" stroke="none">
<path d="M1706 2564 c-172 -42 -323 -194 -371 -375 -53 -198 30 -423 200 -544
85 -61 160 -87 265 -93 162 -8 281 37 390 147 105 106 149 215 150 366 0 124
-29 210 -103 311 -119 161 -331 237 -531 188z m261 -168 c74 -34 162 -121 195
-193 18 -39 22 -67 23 -153 0 -99 -2 -109 -33 -172 -38 -78 -100 -138 -182
-177 -48 -23 -68 -26 -155 -26 -88 0 -107 3 -157 27 -79 37 -152 108 -189 184
-101 205 7 459 226 528 77 24 195 17 272 -18z m-389 -709 c2 -10 -3 -17 -12
-17 -18 0 -29 16 -21 31 9 14 29 6 33 -14z"/>
<path d="M618 2115 c-88 -22 -156 -62 -229 -132 -106 -102 -159 -225 -159
-370 0 -231 160 -440 384 -499 60 -16 183 -18 246 -3 85 19 170 69 239 138
105 105 151 218 151 369 0 214 -134 406 -337 482 -75 28 -215 35 -295 15z
m262 -172 c79 -37 151 -107 188 -183 24 -49 27 -66 27 -160 0 -99 -2 -109 -33
-172 -38 -77 -97 -134 -181 -175 -50 -24 -67 -28 -156 -28 -92 0 -105 3 -166
32 -212 104 -284 367 -152 561 102 150 307 204 473 125z m-392 -706 c2 -10 -3
-17 -12 -17 -18 0 -29 16 -21 31 9 14 29 6 33 -14z"/>
<path d="M1770 1480 c-300 -38 -501 -324 -439 -622 29 -140 146 -290 272 -351
291 -141 628 10 721 322 20 69 21 199 1 276 -63 241 -308 406 -555 375z m112
-151 c120 -25 225 -108 276 -217 24 -50 27 -69 27 -162 0 -95 -3 -111 -28
-162 -17 -34 -51 -78 -87 -111 -191 -177 -490 -117 -603 121 -29 61 -32 76
-32 162 0 88 3 101 33 162 62 126 193 211 334 217 15 1 51 -4 80 -10z m-310
-761 c-15 -15 -26 -4 -18 18 5 13 9 15 18 6 9 -9 9 -15 0 -24z"/>
<path d="M674 1030 c-299 -44 -495 -326 -433 -622 40 -192 204 -352 403 -395
257 -54 523 114 591 374 19 74 19 193 0 268 -64 242 -316 412 -561 375z m118
-151 c120 -25 225 -108 276 -217 24 -50 27 -69 27 -162 0 -94 -3 -111 -28
-161 -32 -67 -119 -152 -182 -180 -194 -86 -417 -3 -508 189 -29 61 -32 76
-32 162 0 82 4 103 27 152 51 109 158 195 268 217 64 13 92 12 152 0z m-302
-733 c0 -8 -4 -17 -8 -20 -13 -8 -35 11 -28 23 10 16 36 14 36 -3z"/>
</g>
</svg>
