<svg xmlns="http://www.w3.org/2000/svg" viewBox="0 0 50 50"><defs><style>.cls-1{fill-rule:evenodd;}</style></defs><g id="Layer_2" data-name="Layer 2"><g id="Layer_1-2" data-name="Layer 1"><g id="Page-1"><g id="Facebook"><path id="Oval-1" class="cls-1" d="M25,50A25,25,0,1,0,0,25,25,25,0,0,0,25,50Zm0-3A22,22,0,1,0,3,25,22,22,0,0,0,25,47Z"/></g></g><path class="cls-1" d="M33.62,13.54H16.83a2.58,2.58,0,0,0-2.57,2.58v17a2.58,2.58,0,0,0,2.57,2.58H31l-.67-2.32L32,34.82l1.51,1.4,2.7,2.38V16.12A2.58,2.58,0,0,0,33.62,13.54ZM28.78,29.91l-.83-1a3.91,3.91,0,0,0,2.27-1.49,6.81,6.81,0,0,1-1.44.74,8.48,8.48,0,0,1-1.82.54,8.77,8.77,0,0,1-3.24,0,10.47,10.47,0,0,1-1.84-.54A6.78,6.78,0,0,1,21,27.7l-.05,0h0l0,0-.05,0-.35-.21a3.91,3.91,0,0,0,2.19,1.48l-.84,1A4.54,4.54,0,0,1,18,28a16.8,16.8,0,0,1,1.8-7.3,6.28,6.28,0,0,1,3.53-1.32l.12.15a8.44,8.44,0,0,0-3.3,1.64l.74-.36A9.46,9.46,0,0,1,23.72,20l.21,0a10.61,10.61,0,0,1,2.53,0,10.3,10.3,0,0,1,3.77,1.2,8.32,8.32,0,0,0-3.12-1.59l.18-.2a6.24,6.24,0,0,1,3.52,1.32A16.73,16.73,0,0,1,32.62,28,4.6,4.6,0,0,1,28.78,29.91Z"/><path class="cls-1" d="M23,24.06a1.39,1.39,0,1,0,1.28,1.39A1.33,1.33,0,0,0,23,24.06Z"/><path class="cls-1" d="M27.53,24.06a1.33,1.33,0,0,0-1.28,1.39,1.28,1.28,0,1,0,1.28-1.39Z"/></g></g></svg>