<svg xmlns="http://www.w3.org/2000/svg" viewBox="0 0 50 50"><defs><style>.cls-1{fill-rule:evenodd;}</style></defs><g id="Layer_2" data-name="Layer 2"><g id="Layer_1-2" data-name="Layer 1"><path class="cls-1" d="M15.15,13.48,13.54,17.6V34.44h5.73v3h3.22l3.05-3h4.65l6.27-6.27V13.48ZM34.31,27.09l-3.58,3.59H25l-3.05,3v-3H17.12v-15H34.31Zm-3.58-7.34V26H28.58V19.75Zm-5.73,0V26H22.85V19.75Z"/><g id="Page-1"><g id="Facebook"><path id="Oval-1" class="cls-1" d="M25,50A25,25,0,1,0,0,25,25,25,0,0,0,25,50Zm0-3A22,22,0,1,0,3,25,22,22,0,0,0,25,47Z"/></g></g></g></g></svg>